<svg width="600" height="400" viewBox="0 0 620 400" xmlns="http://www.w3.org/2000/svg" font-family="Arial, sans-serif">
    <style>
      .primary-color { fill: #5B456E }
.black { fill: #3e3e3e }
.blue {  fill: #3e9e9e;}
.yellow { fill: #E2D488 }
.red { fill: #d15a5a }
.green { fill: #81cb68 }
.black-stroke { fill: none; stroke: #3e3e3e; stroke-width: 9; }
.character-fill { fill: #E0C9F5; } /* Light purple for sweater */
.character-skin { fill: #F5D6BA; } /* Skin tone */
.character-hair { fill: #4A3B3C; } /* Dark brown for hair/beard */
.ui-main-frame { fill: none; stroke: #5B456E; stroke-width: 3; rx: 20; ry: 20;}
.ui-panel-main { fill: #A0D2DB; fill-opacity: 0.7; stroke: #70A9B5; stroke-width: 2; rx: 15; ry: 15;}
.icon-pink-bg { fill: #FF7B9C; rx: 5; ry: 5;}
.icon-pink-cross { stroke: white; stroke-width: 5; stroke-linecap: round;}
.icon-code-bg { fill: #C3AED6; rx: 10; ry: 10;}
.icon-code-tags { fill: #FFFFFF; font-size: 30px; font-weight: bold; }
.icon-gear { fill: #3B82F6; } /* Blue for gear */
.icon-video-bg { fill: #D667CD; rx:10; ry:10; }
.icon-video-play { fill: white; }
.icon-brackets { fill: #7DD3FC; stroke: #0EA5E9; stroke-width:3; }
.text-design { font-size: 24px; font-weight: bold; fill: #333333; text-anchor: middle; }
.st0{fill:none;stroke:#000000;stroke-width:2;stroke-linecap:round;stroke-linejoin:round;stroke-miterlimit:10;}


.st1{fill:none;stroke:#000000;stroke-width:2;stroke-linejoin:round;stroke-miterlimit:10;}

.offset-element {
    offset-path: url(#rectangle-path); /* Reference the SVG path */
    offset-distance: 0.5; /*  Define where on the path the element will be (0-1) */
    animation: roller-coaster 7s infinite linear;
 }

.show-popup {
  animation: popup 0.5s linear 3;
}

.server-led-yellow {
  animation: blinkYellow 1s linear infinite;
}

.server-led-blue {
  animation: blinkBlue 1s linear infinite;
}

.clicked-cursor {
  animation: cursorClick 4s ease-out infinite;
}

.maximize {
  animation: expandUI 4s linear infinite;
  
}

@keyframes roller-coaster {
  0% {
    offset-distance: 0%;
  }
  100% {
    offset-distance: 100%;
  }
}

@keyframes popup {
  0%{transform:scale(0);}
	70%{transform:scale(1.1);}
	100%{transform:scale(1);}  
}

@keyframes blinkYellow {
    from { fill: #E2D488; }
    50% { fill: #AA0; filter:url(#shadow) }
    to { fill: #FF0; }
}

@keyframes blinkBlue {
    from { fill: #3e9e9e; }
    50% { fill: #24E0FF; filter:url(#shadow) }
    to { fill: #3e9e9e; }
}

@keyframes cursorClick {
    from { transform: scale(1); }
    25%  { transform: scale(0.5); }
    50% {opacity:0;}
    75% {opacity:0;}
    to  { opacity:0;}
}

@keyframes expandUI {
    from { width:40px;height:40px; }
    25% { width:40px;height:40px; }
    50% { width:100px;height:80px; }
    75% { width:160px;height:100px; }
    to { 
      transition: all 2s ease-in-out;
      width:160px;height:100px;
    }
}
    </style>
    <defs>
        <filter id="shadow" width="10" height="10">
          <feOffset in="SourceGraphic" dx="20" dy="20" />
          <feGaussianBlur stdDeviation="4" />
          <feBlend in="SourceGraphic" in2="blurOut" />
        </filter>
        <g id="background">
            <path d="M152.641848 244.56832a2.752204 2.752204 0 0 0-2.755275 2.757324l-0.00512 12.11973a2.766538 2.766538 0 0 0 2.760395 2.757323 2.760395 2.760395 0 0 0 2.753228-2.757323v-12.11973a2.756299 2.756299 0 0 0-2.753228-2.757324zM152.638776 286.442158a2.757323 2.757323 0 0 0-2.757323 2.752204l0.00512 12.119731a2.752204 2.752204 0 0 0 2.755275 2.753227 2.749132 2.749132 0 0 0 2.753228-2.753227v-12.119731a2.754252 2.754252 0 0 0-2.7563-2.752204zM140.173997 265.748412a2.75118 2.75118 0 0 0 3.895883 0 2.752204 2.752204 0 0 0 0-3.895883l-8.571968-8.568897a2.756299 2.756299 0 0 0-3.895883 0 2.756299 2.756299 0 0 0 0 3.895884l8.571968 8.568896zM165.101509 282.892348c-1.07508-1.080199-2.815685-1.080199-3.890765 0s-1.07508 2.815685 0 3.895884l8.571968 8.568896a2.761419 2.761419 0 0 0 3.892812 0 2.75118 2.75118 0 0 0 0-3.895884l-8.574015-8.568896zM140.519046 274.318332a2.754252 2.754252 0 0 0-2.755276-2.752203h-12.117682a2.754252 2.754252 0 1 0 0 5.509527h12.117682a2.754252 2.754252 0 0 0 2.755276-2.757324zM179.633513 271.565105h-12.119731a2.754252 2.754252 0 0 0-2.753227 2.757323 2.75118 2.75118 0 0 0 2.755275 2.753228h12.117683a2.755275 2.755275 0 0 0 2.755275-2.757324 2.748108 2.748108 0 0 0-2.755275-2.753227zM140.173997 282.892348l-8.571968 8.568896a2.756299 2.756299 0 0 0 0 3.895884 2.756299 2.756299 0 0 0 3.895883 0l8.571968-8.568896a2.752204 2.752204 0 0 0 0-3.895884 2.747084 2.747084 0 0 0-3.895883 0zM165.106628 265.748412l8.568896-8.568896a2.756299 2.756299 0 0 0 0-3.895884 2.752204 2.752204 0 0 0-3.892812 0l-8.571968 8.568897a2.756299 2.756299 0 0 0 0 3.895883 2.747084 2.747084 0 0 0 3.895884 0z" fill="#FED62C" /><path d="M842.368887 876.734574h45.132865" fill="#FEDEBB" /><path d="M770.778825 876.734574h26.768458" fill="#FEDEBB" /><path d="M187.482618 876.734574h535.985538" fill="#FEDEBB" /><path d="M85.701249 876.734574h40.463948" fill="#FEDEBB" /><path d="M73.003024 479.257171m-8.870943 0a8.870942 8.870942 0 1 0 17.741885 0 8.870942 8.870942 0 1 0-17.741885 0Z" fill="#FD5C1E" /><path d="M119.462844 593.737789a4.044347 4.044347 0 1 1-4.041275-4.046394 4.044347 4.044347 0 0 1 4.041275 4.046394z" fill="#FA9F76" /><path d="M268.19345 220.134321c0 6.006111-4.870622 10.883901-10.881853 10.883901s-10.879805-4.87779-10.879805-10.883901 4.868575-10.883901 10.879805-10.883901c6.011231 0 10.881853 4.87779 10.881853 10.883901z" fill="#FD5C1E" /><path d="M802.663638 496.318172a7.472315 7.472315 0 0 1-7.470268 7.470268 7.469243 7.469243 0 0 1-7.470267-7.470268 7.469243 7.469243 0 0 1 7.470267-7.470267 7.472315 7.472315 0 0 1 7.470268 7.470267z" fill="#FC7C21" /><path d="M602.816581 290.366711c0 6.731022-5.466524 12.197546-12.197546 12.197546-6.740237 0-12.197546-5.466524-12.197546-12.197546 0-6.735118 5.456285-12.197546 12.197546-12.197546 6.731022 0.001024 12.197546 5.462428 12.197546 12.197546z" fill="#FDD72C" /><path d="M110.096341 392.416337c-10.563425 0-19.156894-8.591422-19.156894-19.151775 0-10.565473 8.59347-19.162014 19.156894-19.162013 10.561377 0 19.151775 8.596541 19.151775 19.162013 0 10.560353-8.591422 19.151775-19.151775 19.151775z m0-30.843521c-6.444334 0-11.686627 5.245365-11.686627 11.691746 0 6.441263 5.242293 11.681508 11.686627 11.681508 6.441263 0 11.681508-5.240245 11.681508-11.681508 0-6.446382-5.240245-11.691747-11.681508-11.691746z" fill="#2BA9FC" /><path d="M906.464108 507.187739c-11.475707 0-20.812517-9.337834-20.812517-20.815589 0-11.475707 9.337834-20.810469 20.812517-20.810469s20.810469 9.335786 20.810469 20.810469c0 11.477754-9.335786 20.815589-20.810469 20.815589z m0-34.155791c-7.358664 0-13.343274 5.98461-13.343274 13.340202 0 7.358664 5.98461 13.345321 13.343274 13.345322 7.355592 0 13.340202-5.986657 13.340202-13.345322 0-7.355592-5.98461-13.340202-13.340202-13.340202z" fill="#FDD72C" /><path d="M774.334779 589.900267a4.958677 4.958677 0 0 1-4.962773-4.960724v-4.965844a5.415329 5.415329 0 0 0-10.828611 0v4.965844a4.960724 4.960724 0 0 1-4.965844 4.960724h-4.965844a5.416353 5.416353 0 0 0-5.413281 5.417377 5.413282 5.413282 0 0 0 5.413281 5.413282h4.965844a4.963796 4.963796 0 0 1 4.965844 4.960725v4.965843a5.419425 5.419425 0 0 0 5.41533 5.418401 5.416353 5.416353 0 0 0 5.413281-5.418401v-4.965843a4.961748 4.961748 0 0 1 4.962773-4.960725h4.960724a5.416353 5.416353 0 1 0 0-10.830659h-4.960724z" fill="#2BA9FC" /><path d="M723.326859 293.4312a5.137857 5.137857 0 0 1-5.135808-5.135809v-5.140928a5.604748 5.604748 0 0 0-11.210521 0v5.140928a5.13888 5.13888 0 0 1-5.140928 5.135809h-5.135809a5.606796 5.606796 0 1 0 0 11.21052h5.135809a5.141952 5.141952 0 0 1 5.140928 5.140928v5.135809a5.604748 5.604748 0 1 0 11.210521 0v-5.135809a5.141952 5.141952 0 0 1 5.135808-5.140928h5.140929a5.604748 5.604748 0 1 0 0-11.21052h-5.140929z" fill="#FA9F76" /><path d="M523.333387 217.332971a4.806118 4.806118 0 0 1-4.805094-4.805094v-4.805094a5.242293 5.242293 0 1 0-10.48561 0v4.805094a4.810213 4.810213 0 0 1-4.810213 4.805094h-4.805094a5.246388 5.246388 0 0 0-5.247412 5.247412 5.242293 5.242293 0 0 0 5.247412 5.243317h4.805094a4.810213 4.810213 0 0 1 4.810213 4.805094v4.810213a5.242293 5.242293 0 1 0 10.48561 0v-4.810213c0-2.650839 2.150159-4.805094 4.805094-4.805094h4.810213a5.245365 5.245365 0 0 0 0-10.490729h-4.810213z" fill="#EC5D73" /><path d="M607.218264 412.331931c0 18.111508-14.67842 32.788904-32.784809 32.788903-18.111508 0-32.788904-14.67842-32.788903-32.788903 0-18.106388 14.677396-32.783784 32.788903-32.783784 18.106388 0 32.784808 14.677396 32.784809 32.783784z" fill="#FC7C21" /><path d="M514.667221 374.315069m-18.330619 0a18.330619 18.330619 0 1 0 36.661238 0 18.330619 18.330619 0 1 0-36.661238 0Z" fill="#FDD72C" /><path d="M420.2312 765.0952c-133.4112 0-241.9502-108.539-241.9502-241.9502s108.539-241.9502 241.9502-241.9502c133.4133 0 241.9523 108.539 241.9523 241.9502S553.6445 765.0952 420.2312 765.0952z" class="black-stroke" /><path d="M956.241317 216.866079c0 45.380645-36.787176 82.171917-82.171917 82.171917-45.380645 0-82.171917-36.792295-82.171917-82.171917 0-45.385765 36.791271-82.171917 82.171917-82.171917 45.384741 0 82.171917 36.787176 82.171917 82.171917z" fill="#44BAFC" />
          </g>
        <g id="iot">
          <path class="black drone" d="M73,43.5c-3.2,0-6,2.2-6.7,5.2h-4.9c-0.8-5.6-5.6-10-11.5-10s-10.7,4.3-11.5,10h-4.9
            c-0.8-3-3.5-5.2-6.7-5.2c-3.8,0-7,3.1-7,7c0,3.8,3.1,7,7,7c3.2,0,6-2.2,6.7-5.2h4.9c0.8,5,4.7,8.8,9.7,9.6v4.9
            c-3,0.8-5.2,3.5-5.2,6.7c0,3.8,3.1,7,7,7s7-3.1,7-7c0-3.2-2.2-6-5.2-6.7v-4.9c5-0.7,8.9-4.6,9.7-9.6h4.9c0.8,3,3.5,5.2,6.7,5.2
            c3.8,0,7-3.1,7-7C80,46.6,76.9,43.5,73,43.5z M53.5,73.4c0,1.9-1.6,3.5-3.5,3.5s-3.5-1.6-3.5-3.5c0-1.9,1.6-3.5,3.5-3.5
            S53.5,71.5,53.5,73.4z"/>
          <path class="blue" d="M33.3,36c-0.8,0.8-0.8,2,0,2.8c0.8,0.8,2,0.8,2.8,0c7.4-7.4,19.4-7.4,26.8,0c0.4,0.4,0.9,0.6,1.4,0.6
            s1-0.2,1.4-0.6c0.8-0.8,0.8-2,0-2.8C56.8,27,42.2,27,33.3,36z"/>
          <path class="blue" d="M28.2,32.4C40,20.7,59,20.7,70.8,32.4c0.4,0.4,0.9,0.6,1.4,0.6s1-0.2,1.4-0.6c0.8-0.8,0.8-2,0-2.8
            c-13.3-13.3-34.9-13.3-48.2,0c-0.8,0.8-0.8,2,0,2.8C26.2,33.2,27.4,33.2,28.2,32.4z"/>
          <animateMotion
      path="M-95 0q57 67 100 0 19-33 100 0C70 49 44 20 5 0-45-31-69-24-95 0 "
      begin="0s"
      dur="15s"
      repeatCount="indefinite" />
        </g>
        <clipPath id="gardenClip">
          <circle cx="50" cy="20" r="60"/>
        </clipPath>
        <g id="garden">
          <path class="green" d="M28,32.245V32c-5.894,0-10.761,4.342-11.61,10L15.61,42C14.761,36.343,9.894,32,4,32v0.245  c0,6.235,4.857,11.322,10.992,11.717L15,52.001l2-0.002l-0.008-8.037C23.134,43.575,28,38.485,28,32.245z"/><path class="green" d="M60,32.245V32c-5.894,0-10.761,4.342-11.61,10L47.61,42C46.761,36.343,41.894,32,36,32v0.245  c0,6.235,4.857,11.322,10.992,11.717L47,52.001l2-0.002l-0.008-8.037C55.134,43.575,60,38.485,60,32.245z"/><path class="green" d="M92,32.245V32c-5.894,0-10.761,4.342-11.61,10L79.61,42C78.761,36.343,73.894,32,68,32v0.245  c0,6.235,4.857,11.322,10.992,11.717L79,52.001l2-0.002l-0.008-8.037C87.134,43.575,92,38.485,92,32.245z"/><path class="blue" d="M89,62c0,1.104-0.896,2-2,2H73c-1.104,0-2-0.896-2-2v-2.399c-1.045,0.184-2.297,0.309-4.01,0.309  c-5.297,0-6.284-1.211-9.99-1.653V62c0,1.104-0.896,2-2,2H41c-1.104,0-2-0.896-2-2v-2.159c-4.587-0.327-5.255-1.751-11.01-1.751  c-1.188,0-2.156,0.061-2.99,0.16V62c0,1.104-0.896,2-2,2H9c-1.104,0-2-0.896-2-2v-3.395c-1.242-0.291-2.721-0.515-5-0.515V94h92  V59.91c-1.704,0-3.956-0.125-5-0.308V62z M5,87c-1.105,0-2-0.895-2-2c0-1.105,0.895-2,2-2s2,0.895,2,2C7,86.105,6.105,87,5,87z   M11.897,81.495l-1.727,1.01c-0.921-1.576-1.301-3.131-1.13-4.619c0.073-0.631,0.216-0.992,0.434-1.537  c0.146-0.364,0.342-0.859,0.611-1.665c0.629-1.884,0.915-2.741,0.949-3.719c0.041-1.135-0.257-2.312-0.884-3.497l1.768-0.936  c0.793,1.5,1.168,3.015,1.116,4.503c-0.045,1.267-0.402,2.336-1.049,4.277c-0.288,0.861-0.498,1.388-0.652,1.776  c-0.196,0.492-0.263,0.658-0.305,1.025C10.906,79.163,11.199,80.301,11.897,81.495z M15.859,81.496l-1.727,1.008  c-0.921-1.576-1.301-3.13-1.13-4.618c0.073-0.631,0.216-0.992,0.434-1.537c0.146-0.364,0.342-0.859,0.611-1.665  c0.609-1.823,0.915-2.738,0.949-3.719c0.041-1.135-0.257-2.312-0.884-3.497l1.768-0.936c0.793,1.5,1.168,3.015,1.116,4.503  c-0.045,1.27-0.402,2.339-1.051,4.281c-0.287,0.857-0.496,1.384-0.65,1.772c-0.196,0.492-0.263,0.658-0.305,1.025  C14.869,79.163,15.161,80.301,15.859,81.496z M19.95,75.312c-0.288,0.861-0.498,1.388-0.652,1.776  c-0.196,0.492-0.263,0.658-0.305,1.025c-0.121,1.049,0.171,2.187,0.87,3.381l-1.727,1.01c-0.922-1.577-1.302-3.132-1.13-4.619  c0.072-0.631,0.216-0.992,0.433-1.537c0.146-0.364,0.342-0.859,0.611-1.665C18.68,72.8,18.966,71.942,19,70.965  c0.041-1.135-0.257-2.312-0.885-3.497l1.768-0.936c0.793,1.5,1.168,3.015,1.116,4.503C20.955,72.302,20.598,73.371,19.95,75.312z   M33,87c-1.105,0-2-0.895-2-2c0-1.105,0.895-2,2-2s2,0.895,2,2C35,86.105,34.105,87,33,87z M43.897,81.495l-1.727,1.01  c-0.921-1.576-1.301-3.131-1.13-4.619c0.073-0.631,0.216-0.992,0.434-1.537c0.146-0.364,0.342-0.859,0.611-1.665  c0.629-1.884,0.915-2.741,0.949-3.719c0.041-1.135-0.257-2.312-0.884-3.497l1.768-0.936c0.793,1.5,1.168,3.015,1.116,4.503  c-0.045,1.267-0.402,2.336-1.049,4.277c-0.288,0.861-0.498,1.388-0.652,1.776c-0.196,0.492-0.263,0.658-0.305,1.025  C42.906,79.163,43.199,80.301,43.897,81.495z M47.859,81.496l-1.727,1.008c-0.921-1.576-1.301-3.13-1.13-4.618  c0.073-0.631,0.216-0.992,0.434-1.537c0.146-0.364,0.342-0.859,0.611-1.665c0.609-1.823,0.915-2.738,0.949-3.719  c0.041-1.135-0.257-2.312-0.884-3.497l1.768-0.936c0.793,1.5,1.168,3.015,1.116,4.503c-0.045,1.27-0.402,2.339-1.051,4.281  c-0.287,0.857-0.496,1.384-0.65,1.772c-0.196,0.492-0.263,0.658-0.305,1.025C46.869,79.163,47.161,80.301,47.859,81.496z   M51.95,75.312c-0.288,0.861-0.498,1.388-0.652,1.776c-0.196,0.492-0.263,0.658-0.305,1.025c-0.121,1.049,0.171,2.187,0.87,3.381  l-1.727,1.01c-0.922-1.577-1.302-3.132-1.13-4.619c0.072-0.631,0.216-0.992,0.433-1.537c0.146-0.364,0.342-0.859,0.611-1.665  C50.68,72.8,50.966,71.942,51,70.965c0.041-1.135-0.257-2.312-0.885-3.497l1.768-0.936c0.793,1.5,1.168,3.015,1.116,4.503  C52.955,72.302,52.598,73.371,51.95,75.312z M62,73c-1.105,0-2-0.895-2-2c0-1.105,0.895-2,2-2s2,0.895,2,2  C64,72.105,63.105,73,62,73z M75.897,81.495l-1.727,1.01c-0.921-1.576-1.301-3.131-1.13-4.619c0.073-0.631,0.216-0.992,0.434-1.537  c0.146-0.364,0.342-0.859,0.611-1.665c0.629-1.884,0.915-2.741,0.949-3.719c0.041-1.135-0.257-2.312-0.884-3.497l1.768-0.936  c0.793,1.5,1.168,3.015,1.116,4.503c-0.045,1.267-0.402,2.336-1.049,4.277c-0.288,0.861-0.498,1.388-0.652,1.776  c-0.196,0.492-0.263,0.658-0.305,1.025C74.906,79.163,75.199,80.301,75.897,81.495z M79.859,81.496l-1.727,1.008  c-0.921-1.576-1.301-3.13-1.13-4.618c0.073-0.631,0.216-0.992,0.434-1.537c0.146-0.364,0.342-0.859,0.611-1.665  c0.609-1.823,0.915-2.738,0.949-3.719c0.041-1.135-0.257-2.312-0.884-3.497l1.768-0.936c0.793,1.5,1.168,3.015,1.116,4.503  c-0.045,1.27-0.402,2.339-1.051,4.281c-0.287,0.857-0.496,1.384-0.65,1.772c-0.196,0.492-0.263,0.658-0.305,1.025  C78.869,79.163,79.161,80.301,79.859,81.496z M83.863,81.495l-1.727,1.01c-0.922-1.577-1.302-3.132-1.13-4.619  c0.072-0.631,0.216-0.992,0.433-1.537c0.146-0.364,0.342-0.859,0.611-1.665C82.68,72.8,82.966,71.942,83,70.965  c0.041-1.135-0.257-2.312-0.885-3.497l1.768-0.936c0.793,1.5,1.168,3.015,1.116,4.503c-0.045,1.267-0.402,2.336-1.049,4.277  c-0.288,0.861-0.498,1.388-0.652,1.776c-0.196,0.492-0.263,0.658-0.305,1.025C82.873,79.163,83.165,80.301,83.863,81.495z M86,86  c-1.105,0-2-0.895-2-2c0-1.105,0.895-2,2-2s2,0.895,2,2C88,85.105,87.105,86,86,86z"/>
            <path class="black" d="M41,62h14v-8H41V62z M49,57h2v2h-2V57z M44,56h2v2h-2V56z"/><path class="black" d="M9,62h14v-8H9V62z M17,57h2v2h-2V57z M12,56h2v2h-2V56z"/><path class="black" d="M73,62h14v-8H73V62z M81,57h2v2h-2V57z M76,56h2v2h-2V56z"/>
        </g>
        <g id="server">
          <path style="stroke: #5B456E; stroke-width: 0.5; stroke-linecap: round;" fill="none" d="M15 17M18 11m4-6a3 3 0 00-3-3H5A3 3 0 002 5V7a3 3 0 00.78 2A3 3 0 002 11v2a3 3 0 00.78 2A3 3 0 002 17v2a3 3 0 003 3H19a3 3 0 003-3V17a3 3 0 00-.78-2A3 3 0 0022 13V11a3 3 0 00-.78-2A3 3 0 0022 7z"/><path style="stroke: #5B456E; stroke-width: 0.5; stroke-linecap: round;" fill="none" d="M15 17a1 1 0 101 1A1 1 0 0015 17ZM9 17H6a1 1 0 000 2H9a1 1 0 000-2Zm9 0a1 1 0 101 1A1 1 0 0018 17Zm-3-6a1 1 0 101 1A1 1 0 0015 11ZM9 11H6a1 1 0 000 2H9a1 1 0 000-2Zm9-6a1 1 0 101 1A1 1 0 0018 5Zm0 6a1 1 0 101 1A1 1 0 0018 11ZM20 19a1 1 0 01-1 1H5a1 1 0 01-1-1V17a1 1 0 011-1H19a1 1 0 011 1Zm0-6a1 1 0 01-1 1H5a1 1 0 01-1-1V11a1 1 0 011-1H19a1 1 0 011 1Zm0-6A1 1 0 0119 8H5A1 1 0 014 7V5A1 1 0 015 4H19a1 1 0 011 1ZM15 5a1 1 0 101 1A1 1 0 0015 5ZM9 5H6A1 1 0 006 7H9A1 1 0 009 5Z"/><path class="black" d="M9 17H6a1 1 0 000 2H9a1 1 0 000-2Zm0-6H6a1 1 0 000 2H9a1 1 0 000-2ZM9 5H6A1 1 0 006 7H9A1 1 0 009 5Z"/>
          <path class="blue server-led-blue" d="M15 17a1 1 0 101 1A1 1 0 0015 17ZM15 11a1 1 0 101 1A1 1 0 0015 11ZM15 5a1 1 0 101 1A1 1 0 0015 5z" />
          <path class="server-led-yellow yellow" d="M18 17a1 1 0 101 1A1 1 0 0018 17ZM18 11a1 1 0 101 1A1 1 0 0018 11ZM18 5a1 1 0 101 1A1 1 0 0018 5z" filter="url(#shadow)"/>
        </g>
        <g id="cloudy">
            <g id="database" transform="translate(135,200) scale(12)">
            <path style="fill: none; stroke: #5B456E; stroke-width: 1.2; stroke-linecap: round;" d="M3 12a1 1 0 0 0-1 1v4a1 1 0 0 0 1 1h14a1 1 0 0 0 1-1v-4a1 1 0 0 0-1-1H3zm0-2a3 3 0 0 1-3-3V3a3 3 0 0 1 3-3h14a3 3 0 0 1 3 3v4a3 3 0 0 1-3 3 3 3 0 0 1 3 3v4a3 3 0 0 1-3 3H3a3 3 0 0 1-3-3v-4a3 3 0 0 1 3-3zm0-8a1 1 0 0 0-1 1v4a1 1 0 0 0 1 1h14a1 1 0 0 0 1-1V3a1 1 0 0 0-1-1H3zm2 4a1 1 0 1 1 0-2 1 1 0 0 1 0 2zm3 0a1 1 0 1 1 0-2 1 1 0 0 1 0 2zm0 10a1 1 0 1 1 0-2 1 1 0 0 1 0 2zm-3 0a1 1 0 1 1 0-2 1 1 0 0 1 0 2z"/>
              <path class="blue server-led-blue" d="M5 6a1 1 0 110-2 1 1 0 010 2zM5 16a1 1 0 110-2 1 1 0 010 2z"/>
              <path class="server-led-yellow yellow" d="M8 6a1 1 0 110-2 1 1 0 010 2zM8 16a1 1 0 110-2 1 1 0 010 2z"/>
        </g>
            <path class="blue" d="M493.609,207.138c-9.949-13.301-23.718-23.639-39.172-29.504c-2.354-26.829-14.217-51.7-33.736-70.504
              C399.864,87.055,372.447,76,343.5,76c-9.62,0-19.168,1.238-28.447,3.684C289.97,56.639,257.631,44,223.5,44
              c-27.572,0-54.102,8.246-76.719,23.846c-20.784,14.335-37.015,33.94-47.164,56.907C43.39,130.734,0,178.501,0,235.5
              c0,28.288,10.609,55.263,29.874,75.957c19.163,20.585,45.109,33.092,73.059,35.218c4.13,0.312,7.733-2.779,8.047-6.91
              c0.314-4.13-2.779-7.733-6.91-8.047c-24.179-1.839-46.63-12.665-63.217-30.482C24.181,283.328,15,259.982,15,235.5
              c0-50.68,39.642-92.925,90.248-96.176c2.882-0.185,5.402-2.008,6.479-4.688c8.871-22.075,23.938-40.9,43.571-54.443
              C175.399,66.329,198.983,59,223.5,59c31.649,0,61.569,12.227,84.248,34.427c1.962,1.921,4.818,2.614,7.444,1.812
              C324.369,92.426,333.894,91,343.5,91c51.814,0,94.107,40.591,96.284,92.409c0.133,3.166,2.242,5.906,5.267,6.847
              C475.525,199.729,496,227.556,496,259.5c0,18.1-6.707,35.429-18.885,48.797c-12.099,13.281-28.562,21.568-46.356,23.335
              c-0.587,0.059-1.153,0.184-1.69,0.367h-21.571c-4.142,0-7.5,3.358-7.5,7.5s3.358,7.5,7.5,7.5H431.5c1.15,0,2.24-0.259,3.214-0.722
              c20.538-2.631,39.452-12.47,53.49-27.879C502.904,302.262,511,281.345,511,259.5C511,240.455,504.986,222.349,493.609,207.138z"/>
            <path class="blue" d="M62.985,181.923c-3.08-2.77-7.822-2.52-10.592,0.559C39.243,197.099,32,215.927,32,235.5
              c0,15.741,4.665,31.01,13.49,44.154c1.447,2.156,3.818,3.32,6.233,3.32c1.438,0,2.891-0.413,4.174-1.274
              c3.439-2.309,4.355-6.968,2.046-10.407C50.784,260.63,47,248.252,47,235.5c0-15.862,5.875-31.127,16.544-42.985
              C66.314,189.436,66.064,184.693,62.985,181.923z"/>
            <path class="blue" d="M275.105,107.646c1.328,0.959,2.864,1.42,4.385,1.42c2.327,0,4.62-1.079,6.086-3.109c2.425-3.358,1.669-8.046-1.688-10.472
              C266.24,82.738,245.357,76,223.5,76c-4.142,0-7.5,3.358-7.5,7.5s3.358,7.5,7.5,7.5C242.184,91,260.029,96.756,275.105,107.646z"/>
            <path class="blue" d="M102.677,156.609c-6.03,0.667-11.979,2.028-17.68,4.046c-3.905,1.382-5.95,5.668-4.568,9.573c1.089,3.078,3.982,5,7.07,5
              c0.83,0,1.675-0.139,2.502-0.432c4.617-1.634,9.436-2.737,14.324-3.277c4.117-0.456,7.085-4.162,6.63-8.279
              C110.501,159.122,106.802,156.158,102.677,156.609z"/>
            <path class="black" d="M357.848,124.593c0.557,0.126,1.114,0.186,1.662,0.186c3.427,0,6.521-2.364,7.309-5.847c0.914-4.04-1.621-8.056-5.661-8.97
              C355.401,108.66,349.46,108,343.5,108c-4.142,0-7.5,3.358-7.5,7.5s3.358,7.5,7.5,7.5C348.349,123,353.176,123.536,357.848,124.593z
              "/>
            <path class="black" d="M427.793,217.456c1.168,0.662,2.438,0.977,3.691,0.977c2.613,0,5.151-1.368,6.532-3.803
              c2.042-3.603,0.777-8.18-2.827-10.223c-7.401-4.195-12.034-11.778-12.391-20.284c-0.958-22.817-11.629-44.116-29.277-58.436
              c-3.216-2.61-7.94-2.119-10.549,1.098c-2.61,3.216-2.119,7.939,1.098,10.549c14.31,11.612,22.963,28.895,23.742,47.418
              C408.388,198.464,415.857,210.69,427.793,217.456z"/>
          </g>
        <g id="mobile">
            <path class="black" d="m327.5,0h-192c-21.78,0-39.5,17.72-39.5,39.5v384c0,21.78 17.72,39.5 39.5,39.5h192c21.78,0 39.5-17.72 39.5-39.5v-384c0-21.78-17.72-39.5-39.5-39.5zm-216.5,79h241v305h-241v-305zm24.5-64h192c13.509,0 24.5,10.991 24.5,24.5v24.5h-241v-24.5c0-13.509 10.991-24.5 24.5-24.5zm192,433h-192c-13.509,0-24.5-10.991-24.5-24.5v-24.5h241v24.5c0,13.509-10.991,24.5-24.5,24.5z"/>
            <path class="black" d="m207.5,47h48c4.142,0 7.5-3.358 7.5-7.5s-3.358-7.5-7.5-7.5h-48c-4.142,0-7.5,3.358-7.5,7.5s3.358,7.5 7.5,7.5z"/>
            <path class="black" d="m231.5,409c-7.995,0-14.5,6.505-14.5,14.5s6.505,14.5 14.5,14.5 14.5-6.505 14.5-14.5-6.505-14.5-14.5-14.5z"/>
          </g>
        <g id="phoneData">
          <rect x="2" y="2" width="0" height="0" rx="5" style="fill:none;stroke: #3e3e3e; stroke-width: 5;">
    <animate
      attributeName="width"
      begin="0s"
      dur="1s"
      from="0"
      to="20"
      fill="freeze" />
      <animate
      attributeName="height"
      begin="0s"
      dur="1s"
      from="0"
      to="20"
      fill="freeze" />
  </rect>
  <rect class="black" x="30" y="3" width="0" height="6" rx="5">
    <animate
      attributeName="width"
      begin="2s"
      dur="2.5s"
      from="0"
      to="6%"
      repeatCount="indefinite" />
  </rect>
  <rect class="black" x="30" y="13" width="0" height="6" rx="5">
    <animate
      attributeName="width"
      begin="3s"
      dur="3.5s"
      from="0"
      to="4%"
      repeatCount="indefinite" />
  </rect>
        </g>
        <g id="phoneCode">
          <path class="st0" d="M19,23v4c0,1.1-0.9,2-2,2H7c-1.1,0-2-0.9-2-2V5c0-1.1,0.9-2,2-2h10c1.1,0,2,0.9,2,2v2"/>
        <line class="st0" x1="5" y1="7" x2="19" y2="7"/>
        <line class="st0" x1="5" y1="23" x2="19" y2="23"/>
        <line class="st0" x1="11" y1="26" x2="13" y2="26"/>
        <polyline class="st0" points="14,12 11,15 14,18 "/>
        <polyline class="st0" points="24,12 27,15 24,18 "/>
        <line class="st0" x1="21" y1="11" x2="17" y2="19"/>
      </g> <!-- unused -->
        <g class="clicked-cursor" id="cursor">
          <path id="secondary" d="M9.38,12.2l7.5,7.51a1,1,0,0,0,1.41,0l1.42-1.42a1,1,0,0,0,0-1.41L12.2,9.38" style="fill: none; stroke: rgb(44, 169, 188); stroke-linecap: round; stroke-linejoin: round; stroke-width: 2;"></path><path id="primary" d="M12.2,9.38l2.45-1.32a1,1,0,0,0-.16-1.85L5.28,4A1.05,1.05,0,0,0,4,5.28l2.18,9.21a1,1,0,0,0,1.85.16L9.38,12.2" style="fill: none; stroke: rgb(0, 0, 0); stroke-linecap: round; stroke-linejoin: round; stroke-width: 2;"></path>
        </g>
        <g id="code-tag-icon">
            <path class="icon-code-tags" d="M15 8 L5 18 L15 28 M35 8 L45 18 L35 28 M22 5 L28 31" stroke="white" stroke-width="3" fill="none" stroke-linecap="round" stroke-linejoin="round"/>
        </g> <!-- unused -->
    </defs>

    <g transform="translate(100, 0) scale(0.4)">
        <use href="#background"/>
    </g>
    <g transform="translate(360,260) scale(0.05)">
	<path class="red" d="M426.024,86.447H209.705l-84.911,298.911c-2.568,7.967-9.854,13.482-18.22,13.771c-0.236,0-0.464,0.006-0.688,0.006
		c-8.092,0-15.41-4.924-18.436-12.478l-34.714-86.782H19.851C8.884,299.876,0,290.986,0,280.022
		c0-10.965,8.893-19.854,19.851-19.854H66.18c8.109,0,15.421,4.941,18.436,12.483l19.237,48.09l72.472-260.218
		c2.639-8.213,10.279-13.781,18.903-13.781h230.798c10.97,0,19.854,8.89,19.854,19.851S436.988,86.447,426.024,86.447z
		 M436.723,353.227l-78.259-87.904l74.576-82.783c1.318-1.454,1.638-3.547,0.857-5.341c-0.804-1.791-2.577-2.946-4.54-2.946h-47.18
		c-1.442,0-2.802,0.629-3.759,1.72l-50.059,58.047l-49.674-58.029c-0.939-1.103-2.317-1.738-3.771-1.738h-49.334
		c-1.956,0-3.729,1.149-4.521,2.929c-0.81,1.785-0.479,3.875,0.824,5.332l73.743,82.81l-77.641,87.923
		c-1.297,1.465-1.605,3.552-0.813,5.325c0.813,1.785,2.586,2.92,4.528,2.92h48.9c1.472,0,2.867-0.65,3.807-1.785l51.819-62.181
		l53.05,62.229c0.951,1.11,2.328,1.743,3.782,1.743h49.97c1.962,0,3.735-1.141,4.527-2.926
		C438.354,356.779,438.035,354.692,436.723,353.227z"/>
</g>
    <g transform="translate(80,140) scale(0.07)">
		<path class="red" d="M365.428,186.42L226.267,94.11c-7.686-5.098-18.049-3-23.147,4.685c-5.098,7.686-3,18.049,4.685,23.147l118.181,78.393
			l-118.181,78.393c-7.686,5.098-9.784,15.461-4.685,23.147c5.098,7.685,15.461,9.784,23.147,4.685l139.161-92.309
			c4.652-3.086,7.468-8.333,7.468-13.916S370.081,189.506,365.428,186.42z"/>
      
		<path class="blue" d="M356.196,339.496H155.804c-9.222,0-16.699,7.477-16.699,16.699c0,9.222,7.477,16.699,16.699,16.699h200.391
			c9.222,0,16.699-7.477,16.699-16.699C372.895,346.973,365.418,339.496,356.196,339.496z"/>
	</g>
    <g transform="translate(40,-70)">
        <rect x="350" y="100" width="200" height="150" class="ui-panel-main"/>
        <line style="fill:none;stroke:#70A9B5;stroke-width:2;stroke-linecap:round;stroke-miterlimit:10;" x1="550" y1="120" x2="350" y2="120"/>
        <circle cx="470" cy="110" r="6" class="blue"/>
        <circle cx="490" cy="110" r="6" class="yellow"/>
        <circle cx="510" cy="110" r="6" class="red"/>
        <rect class="maximize" x="370" y="140" width="40" height="40" fill="#CDEEFA" rx="5"/>
        <rect x="430" y="140" width="40" height="40" fill="#CDEEFA" rx="5"/>
      <rect x="490" y="140" width="40" height="40" fill="#CDEEFA" rx="5"/>
        <rect x="370" y="190" width="160" height="30" fill="#CDEEFA" rx="5"/>
      <rect x="370" y="230" width="100" height="10" fill="#CDEEFA" rx="5"/>
      <g transform="translate(390,160) scale(1)">
        <use href="#cursor"/>
      </g>
    </g>
    <g transform="translate(188, 174) scale(1.60)" clip-path="url(#gardenClip)">
        <use href="#garden" />
    </g>
  
    <g transform="translate(30, 10) scale(0.2)">
        <use href="#cloudy"/>
    </g>
  
    <g transform="translate(230, 140) scale(0.6)">
        <use href="#iot" />
    </g>
    
    <g transform="translate(430, 213) scale(6)">
        <use href="#server"/>
    </g>

    <g transform="translate(350, 20) scale(0.5)">
        <rect class="red" x="-5" y="-5" width="50" height="50" rx="50"/>
        <line class="icon-pink-cross" x1="10" y1="10" x2="30" y2="30"/>
        <line class="icon-pink-cross" x1="30" y1="10" x2="10" y2="30"/>
    </g>

    <g transform="translate(60, 182) scale(0.25)">
        <use href="#mobile"/>
    </g>
  
        <g transform="translate(90, 210) scale(0.7)">
          <use href="#phoneData"/>
        </g>
        <g transform="translate(90, 230) scale(0.7)">
          <use href="#phoneData"/>
        </g>
        <g transform="translate(90, 250) scale(0.7)">
          <use href="#phoneData"/>
        </g>
  <g transform="translate(0, -33)">
    <path class="ui-main-frame" id="rectangle-path" d="M450 385h-425a15 15 0 01-15-15v-318a15-15 0 0115-15h570a15 15 0 0115 15v318a15 15 0 01-15 15z" />
    
    <rect class="primary-color offset-element" x="0" y="-5" width="30" height="10" rx="6" />
  </g>
 
 </svg>
